# xmcd
#
# Track frame offsets:
# 150
# 2125
# 9823
# 17148
# 25120
# 31402
# 36075
# 39511
# 43764
# 49948
# 55175
#
# Disc length: 894 seconds
#
#
# Revision: 0
# Processed by: cddbd v1.5.2PL0 Copyright (c) Steve Scherf et al.
# Submitted via: FreeRIP 2.943 
#
DISCID=7d037c0b
DTITLE=something against you - 11 songs ...about kids without fate
DYEAR=2007
DGENRE=Hardcore
TTITLE0=intro
TTITLE1=a piece of mind
TTITLE2=indolent and alive
TTITLE3=bystander
TTITLE4=breathless
TTITLE5=cabin fever
TTITLE6=auf wiedersehen
TTITLE7=f.t.w.
TTITLE8=blankets off
TTITLE9=silence is golden
TTITLE10=o, r they?
EXTD=
EXTT0=
EXTT1=
EXTT2=
EXTT3=
EXTT4=
EXTT5=
EXTT6=
EXTT7=
EXTT8=
EXTT9=
EXTT10=
PLAYORDER=
